# This file uses centimeters as units for non-parametric coordinates.

mtllib Factory2.mtl
g default
v -120.323348 18.996390 20.825886
v -26.516656 18.996390 20.825886
v -120.323348 21.036571 20.825886
v -26.516656 21.036571 20.825886
v -120.323348 21.036571 -198.730046
v -26.516656 21.036571 -198.730046
v -120.323348 18.996390 -198.730046
v -26.516656 18.996390 -198.730046
vt 0.375000 0.000000
vt 0.625000 0.000000
vt 0.375000 0.250000
vt 0.625000 0.250000
vt 0.375000 0.500000
vt 0.625000 0.500000
vt 0.375000 0.750000
vt 0.625000 0.750000
vt 0.375000 1.000000
vt 0.625000 1.000000
vt 0.875000 0.000000
vt 0.875000 0.250000
vt 0.125000 0.000000
vt 0.125000 0.250000
vn 0.000000 0.000000 1.000000
vn 0.000000 0.000000 1.000000
vn 0.000000 0.000000 1.000000
vn 0.000000 0.000000 1.000000
vn 0.000000 1.000000 0.000000
vn 0.000000 1.000000 0.000000
vn 0.000000 1.000000 0.000000
vn 0.000000 1.000000 0.000000
vn 0.000000 0.000000 -1.000000
vn 0.000000 0.000000 -1.000000
vn 0.000000 0.000000 -1.000000
vn 0.000000 0.000000 -1.000000
vn 0.000000 -1.000000 0.000000
vn 0.000000 -1.000000 0.000000
vn 0.000000 -1.000000 0.000000
vn 0.000000 -1.000000 0.000000
vn 1.000000 0.000000 0.000000
vn 1.000000 0.000000 0.000000
vn 1.000000 0.000000 0.000000
vn 1.000000 0.000000 0.000000
vn -1.000000 0.000000 0.000000
vn -1.000000 0.000000 0.000000
vn -1.000000 0.000000 0.000000
vn -1.000000 0.000000 0.000000
s off
g pCube38
usemtl initialShadingGroup
f 1/1/1 2/2/2 4/4/3 3/3/4
f 3/3/5 4/4/6 6/6/7 5/5/8
f 5/5/9 6/6/10 8/8/11 7/7/12
f 7/7/13 8/8/14 2/10/15 1/9/16
f 2/2/17 8/11/18 6/12/19 4/4/20
f 7/13/21 1/1/22 3/3/23 5/14/24
g default
v -131.649754 -42.883503 11.612891
v -5.012133 -42.883503 11.612891
v -131.649754 0.500000 11.612891
v -5.012133 0.500000 11.612891
v -131.649754 0.500000 -189.147496
v -5.012133 0.500000 -189.147496
v -131.649754 -42.883503 -189.147496
v -5.012133 -42.883503 -189.147496
v 131.649749 -42.883503 11.612891
v 5.012133 -42.883503 11.612891
v 131.649749 0.500000 11.612891
v 5.012133 0.500000 11.612891
v 131.649749 0.500000 -189.147496
v 5.012133 0.500000 -189.147496
v 131.649749 -42.883503 -189.147496
v 5.012133 -42.883503 -189.147496
vt 0.375000 0.000000
vt 0.625000 0.000000
vt 0.375000 0.250000
vt 0.625000 0.250000
vt 0.375000 0.500000
vt 0.625000 0.500000
vt 0.375000 0.750000
vt 0.625000 0.750000
vt 0.375000 1.000000
vt 0.625000 1.000000
vt 0.875000 0.000000
vt 0.875000 0.250000
vt 0.125000 0.000000
vt 0.125000 0.250000
vt 0.375000 0.000000
vt 0.625000 0.000000
vt 0.625000 0.250000
vt 0.375000 0.250000
vt 0.625000 0.500000
vt 0.375000 0.500000
vt 0.625000 0.750000
vt 0.375000 0.750000
vt 0.625000 1.000000
vt 0.375000 1.000000
vt 0.875000 0.000000
vt 0.875000 0.250000
vt 0.125000 0.000000
vt 0.125000 0.250000
vn 0.000000 0.000000 1.000000
vn 0.000000 0.000000 1.000000
vn 0.000000 0.000000 1.000000
vn 0.000000 0.000000 1.000000
vn 0.000000 1.000000 0.000000
vn 0.000000 1.000000 0.000000
vn 0.000000 1.000000 0.000000
vn 0.000000 1.000000 0.000000
vn 0.000000 0.000000 -1.000000
vn 0.000000 0.000000 -1.000000
vn 0.000000 0.000000 -1.000000
vn 0.000000 0.000000 -1.000000
vn 0.000000 -1.000000 0.000000
vn 0.000000 -1.000000 0.000000
vn 0.000000 -1.000000 0.000000
vn 0.000000 -1.000000 0.000000
vn 1.000000 0.000000 0.000000
vn 1.000000 0.000000 0.000000
vn 1.000000 0.000000 0.000000
vn 1.000000 0.000000 0.000000
vn -1.000000 0.000000 0.000000
vn -1.000000 0.000000 0.000000
vn -1.000000 0.000000 0.000000
vn -1.000000 0.000000 0.000000
vn 0.000000 0.000000 1.000000
vn 0.000000 0.000000 1.000000
vn 0.000000 0.000000 1.000000
vn 0.000000 0.000000 1.000000
vn 0.000000 1.000000 0.000000
vn 0.000000 1.000000 0.000000
vn 0.000000 1.000000 0.000000
vn 0.000000 1.000000 0.000000
vn 0.000000 0.000000 -1.000000
vn 0.000000 0.000000 -1.000000
vn 0.000000 0.000000 -1.000000
vn 0.000000 0.000000 -1.000000
vn 0.000000 -1.000000 0.000000
vn 0.000000 -1.000000 0.000000
vn 0.000000 -1.000000 0.000000
vn 0.000000 -1.000000 0.000000
vn -1.000000 0.000000 0.000000
vn -1.000000 0.000000 0.000000
vn -1.000000 0.000000 0.000000
vn -1.000000 0.000000 0.000000
vn 1.000000 0.000000 0.000000
vn 1.000000 0.000000 0.000000
vn 1.000000 0.000000 0.000000
vn 1.000000 0.000000 0.000000
s off
g pCube2
usemtl initialShadingGroup
f 9/15/25 10/16/26 12/18/27 11/17/28
f 11/17/29 12/18/30 14/20/31 13/19/32
f 13/19/33 14/20/34 16/22/35 15/21/36
f 15/21/37 16/22/38 10/24/39 9/23/40
f 10/16/41 16/25/42 14/26/43 12/18/44
f 15/27/45 9/15/46 11/17/47 13/28/48
f 17/29/49 19/32/50 20/31/51 18/30/52
f 19/32/53 21/34/54 22/33/55 20/31/56
f 21/34/57 23/36/58 24/35/59 22/33/60
f 23/36/61 17/38/62 18/37/63 24/35/64
f 18/30/65 20/31/66 22/40/67 24/39/68
f 23/41/69 21/42/70 19/32/71 17/29/72
g default
v -61.952985 -0.500000 0.500000
v 61.952985 -0.500000 0.500000
v -61.952985 0.500000 0.500000
v 61.952985 0.500000 0.500000
v -61.952985 0.500000 -0.500000
v 61.952985 0.500000 -0.500000
v -61.952985 -0.500000 -0.500000
v 61.952985 -0.500000 -0.500000
vt 0.375000 0.000000
vt 0.625000 0.000000
vt 0.375000 0.250000
vt 0.625000 0.250000
vt 0.375000 0.500000
vt 0.625000 0.500000
vt 0.375000 0.750000
vt 0.625000 0.750000
vt 0.375000 1.000000
vt 0.625000 1.000000
vt 0.875000 0.000000
vt 0.875000 0.250000
vt 0.125000 0.000000
vt 0.125000 0.250000
vn 0.000000 0.000000 1.000000
vn 0.000000 0.000000 1.000000
vn 0.000000 0.000000 1.000000
vn 0.000000 0.000000 1.000000
vn 0.000000 1.000000 0.000000
vn 0.000000 1.000000 0.000000
vn 0.000000 1.000000 0.000000
vn 0.000000 1.000000 0.000000
vn 0.000000 0.000000 -1.000000
vn 0.000000 0.000000 -1.000000
vn 0.000000 0.000000 -1.000000
vn 0.000000 0.000000 -1.000000
vn 0.000000 -1.000000 0.000000
vn 0.000000 -1.000000 0.000000
vn 0.000000 -1.000000 0.000000
vn 0.000000 -1.000000 0.000000
vn 1.000000 0.000000 0.000000
vn 1.000000 0.000000 0.000000
vn 1.000000 0.000000 0.000000
vn 1.000000 0.000000 0.000000
vn -1.000000 0.000000 0.000000
vn -1.000000 0.000000 0.000000
vn -1.000000 0.000000 0.000000
vn -1.000000 0.000000 0.000000
s off
g pCube1
usemtl initialShadingGroup
f 25/43/73 26/44/74 28/46/75 27/45/76
f 27/45/77 28/46/78 30/48/79 29/47/80
f 29/47/81 30/48/82 32/50/83 31/49/84
f 31/49/85 32/50/86 26/52/87 25/51/88
f 26/44/89 32/53/90 30/54/91 28/46/92
f 31/55/93 25/43/94 27/45/95 29/56/96
g default
v 63.939964 44.022384 -196.481114
v 60.843439 51.498063 -196.481114
v 55.917578 57.917572 -196.481114
v 49.498069 62.843435 -196.481114
v 42.022393 65.939960 -196.481114
v 34.000004 66.996131 -196.481114
v 25.977616 65.939968 -196.481114
v 18.501935 62.843443 -196.481114
v 12.082422 57.917581 -196.481114
v 7.156557 51.498071 -196.481114
v 4.060029 44.022393 -196.481114
v 3.003862 36.000002 -196.481114
v 4.060029 27.977610 -196.481114
v 7.156553 20.501931 -196.481114
v 12.082417 14.082419 -196.481114
v 18.501927 9.156553 -196.481114
v 25.977607 6.060025 -196.481114
v 33.999999 5.003858 -196.481114
v 42.022392 6.060025 -196.481114
v 49.498071 9.156550 -196.481114
v 55.917585 14.082413 -196.481114
v 60.843452 20.501925 -196.481114
v 63.939979 27.977606 -196.481114
v 64.996149 36.000000 -196.481114
v 63.939964 44.022384 -181.518886
v 60.843439 51.498063 -181.518886
v 55.917578 57.917572 -181.518886
v 49.498069 62.843435 -181.518886
v 42.022393 65.939960 -181.518886
v 34.000004 66.996131 -181.518886
v 25.977616 65.939968 -181.518886
v 18.501935 62.843443 -181.518886
v 12.082422 57.917581 -181.518886
v 7.156557 51.498071 -181.518886
v 4.060029 44.022393 -181.518886
v 3.003862 36.000002 -181.518886
v 4.060029 27.977610 -181.518886
v 7.156553 20.501931 -181.518886
v 12.082417 14.082419 -181.518886
v 18.501927 9.156553 -181.518886
v 25.977607 6.060025 -181.518886
v 33.999999 5.003858 -181.518886
v 42.022392 6.060025 -181.518886
v 49.498071 9.156550 -181.518886
v 55.917585 14.082413 -181.518886
v 60.843452 20.501925 -181.518886
v 63.939979 27.977606 -181.518886
v 64.996149 36.000000 -181.518886
v 60.573754 43.120412 -196.481114
v 57.825380 49.755584 -196.481114
v 53.453343 55.453333 -196.481114
v 47.755591 59.825375 -196.481114
v 41.120420 62.573750 -196.481114
v 34.000004 63.511171 -196.481114
v 26.879588 62.573759 -196.481114
v 20.244413 59.825380 -196.481114
v 14.546659 55.453344 -196.481114
v 10.174620 49.755592 -196.481114
v 7.426239 43.120419 -196.481114
v 6.488817 36.000001 -196.481114
v 7.426239 28.879582 -196.481114
v 10.174616 22.244409 -196.481114
v 14.546654 16.546656 -196.481114
v 20.244407 12.174614 -196.481114
v 26.879581 9.426233 -196.481114
v 34.000000 8.488816 -196.481114
v 41.120419 9.426233 -196.481114
v 47.755592 12.174612 -196.481114
v 53.453348 16.546650 -196.481114
v 57.825389 22.244405 -196.481114
v 60.573770 28.879579 -196.481114
v 61.511194 35.999999 -196.481114
v 60.573754 43.120412 -181.518886
v 57.825380 49.755584 -181.518886
v 53.453343 55.453333 -181.518886
v 47.755591 59.825375 -181.518886
v 41.120420 62.573750 -181.518886
v 34.000004 63.511171 -181.518886
v 26.879588 62.573759 -181.518886
v 20.244413 59.825380 -181.518886
v 14.546659 55.453344 -181.518886
v 10.174620 49.755592 -181.518886
v 7.426239 43.120419 -181.518886
v 6.488817 36.000001 -181.518886
v 7.426239 28.879582 -181.518886
v 10.174616 22.244409 -181.518886
v 14.546654 16.546656 -181.518886
v 20.244407 12.174614 -181.518886
v 26.879581 9.426233 -181.518886
v 34.000000 8.488816 -181.518886
v 41.120419 9.426233 -181.518886
v 47.755592 12.174612 -181.518886
v 53.453348 16.546650 -181.518886
v 57.825389 22.244405 -181.518886
v 60.573770 28.879579 -181.518886
v 61.511194 35.999999 -181.518886
vt 0.650926 0.115810
vt 0.635316 0.078125
vt 0.610485 0.045765
vt 0.578125 0.020934
vt 0.540440 0.005324
vt 0.500000 0.000000
vt 0.459560 0.005324
vt 0.421875 0.020934
vt 0.389515 0.045765
vt 0.364684 0.078125
vt 0.349074 0.115810
vt 0.343750 0.156250
vt 0.349074 0.196690
vt 0.364684 0.234375
vt 0.389515 0.266735
vt 0.421875 0.291566
vt 0.459560 0.307176
vt 0.500000 0.312500
vt 0.540440 0.307176
vt 0.578125 0.291566
vt 0.610485 0.266735
vt 0.635316 0.234375
vt 0.650926 0.196690
vt 0.656250 0.156250
vt 0.375000 0.312500
vt 0.385417 0.312500
vt 0.395833 0.312500
vt 0.406250 0.312500
vt 0.416667 0.312500
vt 0.427083 0.312500
vt 0.437500 0.312500
vt 0.447917 0.312500
vt 0.458333 0.312500
vt 0.468750 0.312500
vt 0.479167 0.312500
vt 0.489583 0.312500
vt 0.500000 0.312500
vt 0.510417 0.312500
vt 0.520833 0.312500
vt 0.531250 0.312500
vt 0.541667 0.312500
vt 0.552083 0.312500
vt 0.562500 0.312500
vt 0.572917 0.312500
vt 0.583333 0.312500
vt 0.593750 0.312500
vt 0.604167 0.312500
vt 0.614583 0.312500
vt 0.625000 0.312500
vt 0.375000 0.687500
vt 0.385417 0.687500
vt 0.395833 0.687500
vt 0.406250 0.687500
vt 0.416667 0.687500
vt 0.427083 0.687500
vt 0.437500 0.687500
vt 0.447917 0.687500
vt 0.458333 0.687500
vt 0.468750 0.687500
vt 0.479167 0.687500
vt 0.489583 0.687500
vt 0.500000 0.687500
vt 0.510417 0.687500
vt 0.520833 0.687500
vt 0.531250 0.687500
vt 0.541667 0.687500
vt 0.552083 0.687500
vt 0.562500 0.687500
vt 0.572917 0.687500
vt 0.583333 0.687500
vt 0.593750 0.687500
vt 0.604167 0.687500
vt 0.614583 0.687500
vt 0.625000 0.687500
vt 0.650926 0.803310
vt 0.635316 0.765625
vt 0.610485 0.733265
vt 0.578125 0.708434
vt 0.540440 0.692824
vt 0.500000 0.687500
vt 0.459560 0.692824
vt 0.421875 0.708434
vt 0.389515 0.733265
vt 0.364684 0.765625
vt 0.349074 0.803310
vt 0.343750 0.843750
vt 0.349074 0.884190
vt 0.364684 0.921875
vt 0.389515 0.954235
vt 0.421875 0.979066
vt 0.459560 0.994676
vt 0.500000 1.000000
vt 0.540440 0.994676
vt 0.578125 0.979066
vt 0.610485 0.954235
vt 0.635316 0.921875
vt 0.650926 0.884190
vt 0.656250 0.843750
vt 0.635316 0.078125
vt 0.650926 0.115810
vt 0.610485 0.045765
vt 0.578125 0.020934
vt 0.540440 0.005324
vt 0.500000 0.000000
vt 0.459560 0.005324
vt 0.421875 0.020934
vt 0.389515 0.045765
vt 0.364684 0.078125
vt 0.349074 0.115810
vt 0.343750 0.156250
vt 0.349074 0.196690
vt 0.364684 0.234375
vt 0.389515 0.266735
vt 0.421875 0.291566
vt 0.459560 0.307176
vt 0.500000 0.312500
vt 0.540440 0.307176
vt 0.578125 0.291566
vt 0.610485 0.266735
vt 0.635316 0.234375
vt 0.650926 0.196690
vt 0.656250 0.156250
vt 0.650926 0.884190
vt 0.635316 0.921875
vt 0.610485 0.954235
vt 0.578125 0.979066
vt 0.540440 0.994676
vt 0.500000 1.000000
vt 0.459560 0.994676
vt 0.421875 0.979066
vt 0.389515 0.954235
vt 0.364684 0.921875
vt 0.349074 0.884190
vt 0.343750 0.843750
vt 0.349074 0.803310
vt 0.364684 0.765625
vt 0.389515 0.733265
vt 0.421875 0.708434
vt 0.459560 0.692824
vt 0.500000 0.687500
vt 0.540440 0.692824
vt 0.578125 0.708434
vt 0.610485 0.733265
vt 0.635316 0.765625
vt 0.650926 0.803310
vt 0.656250 0.843750
vn 0.965926 0.258820 0.000000
vn 0.866025 0.500000 0.000000
vn 0.866025 0.500000 0.000000
vn 0.965926 0.258820 0.000000
vn 0.707107 0.707107 0.000000
vn 0.707107 0.707107 0.000000
vn 0.500000 0.866025 0.000000
vn 0.500000 0.866025 0.000000
vn 0.258819 0.965926 0.000000
vn 0.258819 0.965926 0.000000
vn 0.000000 1.000000 0.000000
vn 0.000000 1.000000 0.000000
vn -0.258819 0.965926 0.000000
vn -0.258819 0.965926 0.000000
vn -0.500000 0.866026 0.000000
vn -0.500000 0.866026 0.000000
vn -0.707107 0.707107 0.000000
vn -0.707107 0.707107 0.000000
vn -0.866025 0.500000 0.000000
vn -0.866025 0.500000 0.000000
vn -0.965926 0.258819 0.000000
vn -0.965926 0.258819 0.000000
vn -1.000000 0.000000 0.000000
vn -1.000000 0.000000 0.000000
vn -0.965926 -0.258819 -0.000000
vn -0.965926 -0.258819 -0.000000
vn -0.866026 -0.500000 -0.000000
vn -0.866026 -0.500000 -0.000000
vn -0.707107 -0.707107 -0.000000
vn -0.707107 -0.707107 -0.000000
vn -0.500000 -0.866025 -0.000000
vn -0.500000 -0.866025 -0.000000
vn -0.258819 -0.965926 -0.000000
vn -0.258819 -0.965926 -0.000000
vn 0.000000 -1.000000 -0.000000
vn 0.000000 -1.000000 -0.000000
vn 0.258819 -0.965926 -0.000000
vn 0.258819 -0.965926 -0.000000
vn 0.500000 -0.866026 -0.000000
vn 0.500000 -0.866026 -0.000000
vn 0.707107 -0.707107 -0.000000
vn 0.707107 -0.707107 -0.000000
vn 0.866025 -0.500000 -0.000000
vn 0.866025 -0.500000 -0.000000
vn 0.965926 -0.258819 -0.000000
vn 0.965926 -0.258819 -0.000000
vn 1.000000 0.000001 0.000000
vn 1.000000 0.000001 0.000000
vn 0.000000 0.000000 -1.000000
vn 0.000000 0.000000 -1.000000
vn 0.000000 0.000000 -1.000000
vn 0.000000 0.000000 -1.000000
vn 0.000000 0.000000 -1.000000
vn 0.000000 0.000000 -1.000000
vn 0.000000 0.000000 -1.000000
vn 0.000000 0.000000 -1.000000
vn 0.000000 0.000000 -1.000000
vn 0.000000 0.000000 -1.000000
vn 0.000000 0.000000 -1.000000
vn 0.000000 0.000000 -1.000000
vn 0.000000 0.000000 -1.000000
vn 0.000000 0.000000 -1.000000
vn 0.000000 0.000000 -1.000000
vn 0.000000 0.000000 -1.000000
vn 0.000000 0.000000 -1.000000
vn 0.000000 0.000000 -1.000000
vn 0.000000 0.000000 -1.000000
vn 0.000000 0.000000 -1.000000
vn 0.000000 0.000000 -1.000000
vn 0.000000 0.000000 -1.000000
vn 0.000000 0.000000 -1.000000
vn 0.000000 0.000000 -1.000000
vn 0.000000 0.000000 -1.000000
vn 0.000000 0.000000 -1.000000
vn 0.000000 0.000000 -1.000000
vn 0.000000 0.000000 -1.000000
vn 0.000000 0.000000 -1.000000
vn 0.000000 0.000000 -1.000000
vn 0.000000 0.000000 -1.000000
vn 0.000000 0.000000 -1.000000
vn 0.000000 0.000000 -1.000000
vn 0.000000 0.000000 -1.000000
vn 0.000000 0.000000 -1.000000
vn 0.000000 0.000000 -1.000000
vn 0.000000 0.000000 -1.000000
vn 0.000000 0.000000 -1.000000
vn 0.000000 0.000000 -1.000000
vn 0.000000 0.000000 -1.000000
vn 0.000000 0.000000 -1.000000
vn 0.000000 0.000000 -1.000000
vn 0.000000 0.000000 -1.000000
vn 0.000000 0.000000 -1.000000
vn 0.000000 0.000000 -1.000000
vn 0.000000 0.000000 -1.000000
vn 0.000000 0.000000 -1.000000
vn 0.000000 0.000000 -1.000000
vn 0.000000 0.000000 -1.000000
vn 0.000000 0.000000 -1.000000
vn 0.000000 0.000000 -1.000000
vn 0.000000 0.000000 -1.000000
vn 0.000000 0.000000 -1.000000
vn 0.000000 0.000000 -1.000000
vn 0.000000 0.000000 -1.000000
vn 0.000000 0.000000 -1.000000
vn 0.000000 0.000000 -1.000000
vn 0.000000 0.000000 -1.000000
vn 0.000000 0.000000 -1.000000
vn 0.000000 0.000000 -1.000000
vn 0.000000 0.000000 -1.000000
vn 0.000000 0.000000 -1.000000
vn 0.000000 0.000000 -1.000000
vn 0.000000 0.000000 -1.000000
vn 0.000000 -0.000000 -1.000000
vn 0.000000 -0.000000 -1.000000
vn 0.000000 -0.000000 -1.000000
vn 0.000000 -0.000000 -1.000000
vn 0.000000 0.000000 -1.000000
vn 0.000000 0.000000 -1.000000
vn 0.000000 0.000000 -1.000000
vn 0.000000 0.000000 -1.000000
vn 0.000000 0.000000 -1.000000
vn 0.000000 0.000000 -1.000000
vn 0.000000 0.000000 -1.000000
vn 0.000000 0.000000 -1.000000
vn 0.000000 0.000000 -1.000000
vn 0.000000 0.000000 -1.000000
vn 0.000000 0.000000 -1.000000
vn 0.000000 0.000000 -1.000000
vn 0.000000 0.000000 -1.000000
vn 0.000000 0.000000 -1.000000
vn 0.000000 0.000000 -1.000000
vn 0.000000 0.000000 -1.000000
vn 0.000000 0.000000 -1.000000
vn 0.000000 0.000000 -1.000000
vn 0.000000 0.000000 -1.000000
vn 0.000000 0.000000 -1.000000
vn 0.000000 0.000000 -1.000000
vn 0.000000 0.000000 -1.000000
vn 0.000000 0.000000 -1.000000
vn 0.000000 0.000000 -1.000000
vn 0.000000 0.000000 -1.000000
vn 0.000000 0.000000 -1.000000
vn 0.000000 0.000000 -1.000000
vn 0.000000 0.000000 -1.000000
vn 0.000000 -0.000000 1.000000
vn 0.000000 -0.000000 1.000000
vn 0.000000 -0.000000 1.000000
vn 0.000000 -0.000000 1.000000
vn 0.000000 -0.000000 1.000000
vn 0.000000 -0.000000 1.000000
vn 0.000000 -0.000000 1.000000
vn 0.000000 -0.000000 1.000000
vn 0.000000 -0.000000 1.000000
vn 0.000000 -0.000000 1.000000
vn 0.000000 -0.000000 1.000000
vn 0.000000 -0.000000 1.000000
vn 0.000000 -0.000000 1.000000
vn 0.000000 -0.000000 1.000000
vn 0.000000 -0.000000 1.000000
vn 0.000000 -0.000000 1.000000
vn 0.000000 -0.000000 1.000000
vn 0.000000 -0.000000 1.000000
vn 0.000000 -0.000000 1.000000
vn 0.000000 -0.000000 1.000000
vn 0.000000 -0.000000 1.000000
vn 0.000000 -0.000000 1.000000
vn 0.000000 -0.000000 1.000000
vn 0.000000 -0.000000 1.000000
vn 0.000000 -0.000000 1.000000
vn 0.000000 -0.000000 1.000000
vn 0.000000 -0.000000 1.000000
vn 0.000000 -0.000000 1.000000
vn 0.000000 -0.000000 1.000000
vn 0.000000 -0.000000 1.000000
vn 0.000000 -0.000000 1.000000
vn 0.000000 -0.000000 1.000000
vn 0.000000 -0.000000 1.000000
vn 0.000000 -0.000000 1.000000
vn 0.000000 -0.000000 1.000000
vn 0.000000 -0.000000 1.000000
vn 0.000000 -0.000000 1.000000
vn 0.000000 -0.000000 1.000000
vn 0.000000 -0.000000 1.000000
vn 0.000000 -0.000000 1.000000
vn 0.000000 -0.000000 1.000000
vn 0.000000 -0.000000 1.000000
vn 0.000000 -0.000000 1.000000
vn 0.000000 -0.000000 1.000000
vn 0.000000 -0.000000 1.000000
vn 0.000000 -0.000000 1.000000
vn 0.000000 -0.000000 1.000000
vn 0.000000 -0.000000 1.000000
vn 0.000000 -0.000000 1.000000
vn 0.000000 -0.000000 1.000000
vn 0.000000 -0.000000 1.000000
vn 0.000000 -0.000000 1.000000
vn 0.000000 -0.000000 1.000000
vn 0.000000 -0.000000 1.000000
vn 0.000000 -0.000000 1.000000
vn 0.000000 -0.000000 1.000000
vn 0.000000 -0.000000 1.000000
vn 0.000000 -0.000000 1.000000
vn 0.000000 -0.000000 1.000000
vn 0.000000 -0.000000 1.000000
vn 0.000000 0.000000 1.000000
vn 0.000000 0.000000 1.000000
vn 0.000000 0.000000 1.000000
vn 0.000000 0.000000 1.000000
vn 0.000000 -0.000000 1.000000
vn 0.000000 -0.000000 1.000000
vn 0.000000 -0.000000 1.000000
vn 0.000000 -0.000000 1.000000
vn 0.000000 0.000000 1.000000
vn 0.000000 0.000000 1.000000
vn 0.000000 0.000000 1.000000
vn 0.000000 0.000000 1.000000
vn 0.000000 -0.000000 1.000000
vn 0.000000 -0.000000 1.000000
vn 0.000000 -0.000000 1.000000
vn 0.000000 -0.000000 1.000000
vn 0.000000 -0.000000 1.000000
vn 0.000000 -0.000000 1.000000
vn 0.000000 -0.000000 1.000000
vn 0.000000 -0.000000 1.000000
vn 0.000000 -0.000000 1.000000
vn 0.000000 -0.000000 1.000000
vn 0.000000 -0.000000 1.000000
vn 0.000000 -0.000000 1.000000
vn 0.000000 -0.000000 1.000000
vn 0.000000 -0.000000 1.000000
vn 0.000000 -0.000000 1.000000
vn 0.000000 -0.000000 1.000000
vn 0.000000 -0.000000 1.000000
vn 0.000000 -0.000000 1.000000
vn 0.000000 -0.000000 1.000000
vn 0.000000 -0.000000 1.000000
vn 0.000000 -0.000000 1.000000
vn 0.000000 -0.000000 1.000000
vn 0.000000 -0.000000 1.000000
vn 0.000000 -0.000000 1.000000
vn -0.923880 -0.382683 -0.000000
vn -0.923880 -0.382683 -0.000000
vn -0.923880 -0.382683 -0.000000
vn -0.923880 -0.382683 -0.000000
vn -0.991445 -0.130529 -0.000000
vn -0.991445 -0.130529 -0.000000
vn -0.991445 -0.130529 -0.000000
vn -0.991445 -0.130529 -0.000000
vn -0.991445 0.130526 0.000000
vn -0.991445 0.130526 0.000000
vn -0.991445 0.130526 0.000000
vn -0.991445 0.130526 0.000000
vn -0.923879 0.382684 0.000000
vn -0.923879 0.382684 0.000000
vn -0.923879 0.382684 0.000000
vn -0.923879 0.382684 0.000000
vn -0.793353 0.608761 0.000000
vn -0.793353 0.608761 0.000000
vn -0.793353 0.608761 0.000000
vn -0.793353 0.608761 0.000000
vn -0.608761 0.793354 0.000000
vn -0.608761 0.793354 0.000000
vn -0.608761 0.793354 0.000000
vn -0.608761 0.793354 0.000000
vn -0.382683 0.923880 0.000000
vn -0.382683 0.923880 0.000000
vn -0.382683 0.923880 0.000000
vn -0.382683 0.923880 0.000000
vn -0.130526 0.991445 0.000000
vn -0.130526 0.991445 0.000000
vn -0.130526 0.991445 0.000000
vn -0.130526 0.991445 0.000000
vn 0.130526 0.991445 0.000000
vn 0.130526 0.991445 0.000000
vn 0.130526 0.991445 0.000000
vn 0.130526 0.991445 0.000000
vn 0.382684 0.923879 0.000000
vn 0.382684 0.923879 0.000000
vn 0.382684 0.923879 0.000000
vn 0.382684 0.923879 0.000000
vn 0.608762 0.793353 0.000000
vn 0.608762 0.793353 0.000000
vn 0.608762 0.793353 0.000000
vn 0.608762 0.793353 0.000000
vn 0.793353 0.608761 0.000000
vn 0.793353 0.608761 0.000000
vn 0.793353 0.608761 0.000000
vn 0.793353 0.608761 0.000000
vn 0.923880 0.382683 0.000000
vn 0.923880 0.382683 0.000000
vn 0.923880 0.382683 0.000000
vn 0.923880 0.382683 0.000000
vn 0.991445 0.130526 0.000000
vn 0.991445 0.130526 0.000000
vn 0.991445 0.130526 0.000000
vn 0.991445 0.130526 0.000000
vn 0.991445 -0.130526 -0.000000
vn 0.991445 -0.130526 -0.000000
vn 0.991445 -0.130526 -0.000000
vn 0.991445 -0.130526 -0.000000
vn 0.923879 -0.382684 -0.000000
vn 0.923879 -0.382684 -0.000000
vn 0.923879 -0.382684 -0.000000
vn 0.923879 -0.382684 -0.000000
vn 0.793353 -0.608761 -0.000000
vn 0.793353 -0.608761 -0.000000
vn 0.793353 -0.608761 -0.000000
vn 0.793353 -0.608761 -0.000000
vn 0.608761 -0.793354 -0.000000
vn 0.608761 -0.793354 -0.000000
vn 0.608761 -0.793354 -0.000000
vn 0.608761 -0.793354 -0.000000
vn 0.382683 -0.923880 -0.000000
vn 0.382683 -0.923880 -0.000000
vn 0.382683 -0.923880 -0.000000
vn 0.382683 -0.923880 -0.000000
vn 0.130525 -0.991445 -0.000000
vn 0.130525 -0.991445 -0.000000
vn 0.130525 -0.991445 -0.000000
vn 0.130525 -0.991445 -0.000000
vn -0.130526 -0.991445 -0.000000
vn -0.130526 -0.991445 -0.000000
vn -0.130526 -0.991445 -0.000000
vn -0.130526 -0.991445 -0.000000
vn -0.382683 -0.923880 -0.000000
vn -0.382683 -0.923880 -0.000000
vn -0.382683 -0.923880 -0.000000
vn -0.382683 -0.923880 -0.000000
vn -0.608762 -0.793353 -0.000000
vn -0.608762 -0.793353 -0.000000
vn -0.608762 -0.793353 -0.000000
vn -0.608762 -0.793353 -0.000000
vn -0.793353 -0.608761 -0.000000
vn -0.793353 -0.608761 -0.000000
vn -0.793353 -0.608761 -0.000000
vn -0.793353 -0.608761 -0.000000
s 1
g pCylinder8 group4
usemtl initialShadingGroup
f 33/81/97 34/82/98 58/107/99 57/106/100
f 34/82/98 35/83/101 59/108/102 58/107/99
f 35/83/101 36/84/103 60/109/104 59/108/102
f 36/84/103 37/85/105 61/110/106 60/109/104
f 37/85/105 38/86/107 62/111/108 61/110/106
f 38/86/107 39/87/109 63/112/110 62/111/108
f 39/87/109 40/88/111 64/113/112 63/112/110
f 40/88/111 41/89/113 65/114/114 64/113/112
f 41/89/113 42/90/115 66/115/116 65/114/114
f 42/90/115 43/91/117 67/116/118 66/115/116
f 43/91/117 44/92/119 68/117/120 67/116/118
f 44/92/119 45/93/121 69/118/122 68/117/120
f 45/93/121 46/94/123 70/119/124 69/118/122
f 46/94/123 47/95/125 71/120/126 70/119/124
f 47/95/125 48/96/127 72/121/128 71/120/126
f 48/96/127 49/97/129 73/122/130 72/121/128
f 49/97/129 50/98/131 74/123/132 73/122/130
f 50/98/131 51/99/133 75/124/134 74/123/132
f 51/99/133 52/100/135 76/125/136 75/124/134
f 52/100/135 53/101/137 77/126/138 76/125/136
f 53/101/137 54/102/139 78/127/140 77/126/138
f 54/102/139 55/103/141 79/128/142 78/127/140
f 55/103/141 56/104/143 80/129/144 79/128/142
f 56/104/143 33/105/97 57/130/100 80/129/144
s off
f 34/58/145 33/57/146 81/156/147 82/155/148
f 35/59/149 34/58/150 82/155/151 83/157/152
f 36/60/153 35/59/154 83/157/155 84/158/156
f 37/61/157 36/60/158 84/158/159 85/159/160
f 38/62/161 37/61/162 85/159/163 86/160/164
f 39/63/165 38/62/166 86/160/167 87/161/168
f 40/64/169 39/63/170 87/161/171 88/162/172
f 41/65/173 40/64/174 88/162/175 89/163/176
f 42/66/177 41/65/178 89/163/179 90/164/180
f 43/67/181 42/66/182 90/164/183 91/165/184
f 44/68/185 43/67/186 91/165/187 92/166/188
f 45/69/189 44/68/190 92/166/191 93/167/192
f 46/70/193 45/69/194 93/167/195 94/168/196
f 47/71/197 46/70/198 94/168/199 95/169/200
f 48/72/201 47/71/202 95/169/203 96/170/204
f 49/73/205 48/72/206 96/170/207 97/171/208
f 50/74/209 49/73/210 97/171/211 98/172/212
f 51/75/213 50/74/214 98/172/215 99/173/216
f 52/76/217 51/75/218 99/173/219 100/174/220
f 53/77/221 52/76/222 100/174/223 101/175/224
f 54/78/225 53/77/226 101/175/227 102/176/228
f 55/79/229 54/78/230 102/176/231 103/177/232
f 56/80/233 55/79/234 103/177/235 104/178/236
f 33/57/237 56/80/238 104/178/239 81/156/240
f 57/153/241 58/152/242 106/180/243 105/179/244
f 58/152/245 59/151/246 107/181/247 106/180/248
f 59/151/249 60/150/250 108/182/251 107/181/252
f 60/150/253 61/149/254 109/183/255 108/182/256
f 61/149/257 62/148/258 110/184/259 109/183/260
f 62/148/261 63/147/262 111/185/263 110/184/264
f 63/147/265 64/146/266 112/186/267 111/185/268
f 64/146/269 65/145/270 113/187/271 112/186/272
f 65/145/273 66/144/274 114/188/275 113/187/276
f 66/144/277 67/143/278 115/189/279 114/188/280
f 67/143/281 68/142/282 116/190/283 115/189/284
f 68/142/285 69/141/286 117/191/287 116/190/288
f 69/141/289 70/140/290 118/192/291 117/191/292
f 70/140/293 71/139/294 119/193/295 118/192/296
f 71/139/297 72/138/298 120/194/299 119/193/300
f 72/138/301 73/137/302 121/195/303 120/194/304
f 73/137/305 74/136/306 122/196/307 121/195/308
f 74/136/309 75/135/310 123/197/311 122/196/312
f 75/135/313 76/134/314 124/198/315 123/197/316
f 76/134/317 77/133/318 125/199/319 124/198/320
f 77/133/321 78/132/322 126/200/323 125/199/324
f 78/132/325 79/131/326 127/201/327 126/200/328
f 79/131/329 80/154/330 128/202/331 127/201/332
f 80/154/333 57/153/334 105/179/335 128/202/336
f 82/155/337 81/156/338 105/179/339 106/180/340
f 81/156/341 104/178/342 128/202/343 105/179/344
f 104/178/345 103/177/346 127/201/347 128/202/348
f 103/177/349 102/176/350 126/200/351 127/201/352
f 102/176/353 101/175/354 125/199/355 126/200/356
f 101/175/357 100/174/358 124/198/359 125/199/360
f 100/174/361 99/173/362 123/197/363 124/198/364
f 99/173/365 98/172/366 122/196/367 123/197/368
f 98/172/369 97/171/370 121/195/371 122/196/372
f 97/171/373 96/170/374 120/194/375 121/195/376
f 96/170/377 95/169/378 119/193/379 120/194/380
f 95/169/381 94/168/382 118/192/383 119/193/384
f 94/168/385 93/167/386 117/191/387 118/192/388
f 93/167/389 92/166/390 116/190/391 117/191/392
f 92/166/393 91/165/394 115/189/395 116/190/396
f 91/165/397 90/164/398 114/188/399 115/189/400
f 90/164/401 89/163/402 113/187/403 114/188/404
f 89/163/405 88/162/406 112/186/407 113/187/408
f 88/162/409 87/161/410 111/185/411 112/186/412
f 87/161/413 86/160/414 110/184/415 111/185/416
f 86/160/417 85/159/418 109/183/419 110/184/420
f 85/159/421 84/158/422 108/182/423 109/183/424
f 84/158/425 83/157/426 107/181/427 108/182/428
f 83/157/429 82/155/430 106/180/431 107/181/432
g default
v 33.460261 9.664863 -182.401506
v 33.460492 28.703208 -184.449433
v 32.381693 9.630134 -182.724482
v 32.381923 28.668479 -184.772408
v 34.539091 8.863983 -189.846681
v 34.539322 27.902329 -191.894607
v 35.617660 8.898712 -189.523705
v 35.617891 27.937058 -191.571632
vt 0.375000 0.000000
vt 0.625000 0.000000
vt 0.375000 0.250000
vt 0.625000 0.250000
vt 0.375000 0.500000
vt 0.625000 0.500000
vt 0.375000 0.750000
vt 0.625000 0.750000
vt 0.375000 1.000000
vt 0.625000 1.000000
vt 0.875000 0.000000
vt 0.875000 0.250000
vt 0.125000 0.000000
vt 0.125000 0.250000
vn -0.288379 0.102411 0.952024
vn -0.288379 0.102411 0.952024
vn -0.288379 0.102411 0.952024
vn -0.288379 0.102411 0.952024
vn -0.957516 -0.030831 -0.286726
vn -0.957516 -0.030831 -0.286726
vn -0.957516 -0.030831 -0.286726
vn -0.957516 -0.030831 -0.286726
vn 0.288379 -0.102411 -0.952024
vn 0.288379 -0.102411 -0.952024
vn 0.288379 -0.102411 -0.952024
vn 0.288379 -0.102411 -0.952024
vn 0.957516 0.030831 0.286726
vn 0.957516 0.030831 0.286726
vn 0.957516 0.030831 0.286726
vn 0.957516 0.030831 0.286726
vn 0.000012 0.994264 -0.106952
vn 0.000012 0.994264 -0.106952
vn 0.000012 0.994264 -0.106952
vn 0.000012 0.994264 -0.106952
vn -0.000012 -0.994264 0.106952
vn -0.000012 -0.994264 0.106952
vn -0.000012 -0.994264 0.106952
vn -0.000012 -0.994264 0.106952
s off
g group4 pCube36 group5
usemtl initialShadingGroup
f 129/203/433 130/204/434 132/206/435 131/205/436
f 131/205/437 132/206/438 134/208/439 133/207/440
f 133/207/441 134/208/442 136/210/443 135/209/444
f 135/209/445 136/210/446 130/212/447 129/211/448
f 130/204/449 136/213/450 134/214/451 132/206/452
f 135/215/453 129/203/454 131/205/455 133/216/456
g default
v 34.565057 63.140802 -188.345432
v 34.565287 44.117125 -186.165456
v 35.641346 63.102982 -188.675586
v 35.641576 44.079305 -186.495610
v 33.434296 62.289155 -195.777255
v 33.434527 43.265478 -193.597279
v 32.358007 62.326976 -195.447101
v 32.358238 43.303298 -193.267125
vt 0.375000 0.000000
vt 0.625000 0.000000
vt 0.375000 0.250000
vt 0.625000 0.250000
vt 0.375000 0.500000
vt 0.625000 0.500000
vt 0.375000 0.750000
vt 0.625000 0.750000
vt 0.375000 1.000000
vt 0.625000 1.000000
vt 0.875000 0.000000
vt 0.875000 0.250000
vt 0.125000 0.000000
vt 0.125000 0.250000
vn 0.295016 0.108784 0.949279
vn 0.295016 0.108784 0.949279
vn 0.295016 0.108784 0.949279
vn 0.295016 0.108784 0.949279
vn 0.955492 -0.033575 -0.293099
vn 0.955492 -0.033575 -0.293099
vn 0.955492 -0.033575 -0.293099
vn 0.955492 -0.033575 -0.293099
vn -0.295016 -0.108784 -0.949279
vn -0.295016 -0.108784 -0.949279
vn -0.295016 -0.108784 -0.949279
vn -0.295016 -0.108784 -0.949279
vn -0.955492 0.033575 0.293099
vn -0.955492 0.033575 0.293099
vn -0.955492 0.033575 0.293099
vn -0.955492 0.033575 0.293099
vn 0.000012 -0.993498 0.113848
vn 0.000012 -0.993498 0.113848
vn 0.000012 -0.993498 0.113848
vn 0.000012 -0.993498 0.113848
vn -0.000012 0.993498 -0.113848
vn -0.000012 0.993498 -0.113848
vn -0.000012 0.993498 -0.113848
vn -0.000012 0.993498 -0.113848
s off
g group4 group5 pCube32
usemtl initialShadingGroup
f 137/217/457 138/218/458 140/220/459 139/219/460
f 139/219/461 140/220/462 142/222/463 141/221/464
f 141/221/465 142/222/466 144/224/467 143/223/468
f 143/223/469 144/224/470 138/226/471 137/225/472
f 138/218/473 144/227/474 142/228/475 140/220/476
f 143/229/477 137/217/478 139/219/479 141/230/480
g default
v -18.683942 0.205960 -161.650232
v -12.957346 0.205960 -161.650232
v -33.962353 20.748979 -161.650232
v -28.235751 20.748979 -161.650232
v -33.962353 20.748979 -164.552909
v -28.235751 20.748979 -164.552909
v -18.683942 0.205960 -164.552909
v -12.957346 0.205960 -164.552909
vt 0.375000 0.000000
vt 0.625000 0.000000
vt 0.375000 0.250000
vt 0.625000 0.250000
vt 0.375000 0.500000
vt 0.625000 0.500000
vt 0.375000 0.750000
vt 0.625000 0.750000
vt 0.375000 1.000000
vt 0.625000 1.000000
vt 0.875000 0.000000
vt 0.875000 0.250000
vt 0.125000 0.000000
vt 0.125000 0.250000
vn 0.000000 0.000000 1.000000
vn 0.000000 0.000000 1.000000
vn 0.000000 0.000000 1.000000
vn 0.000000 0.000000 1.000000
vn 0.000000 1.000000 0.000000
vn 0.000000 1.000000 0.000000
vn 0.000000 1.000000 0.000000
vn 0.000000 1.000000 0.000000
vn 0.000000 0.000000 -1.000000
vn 0.000000 0.000000 -1.000000
vn 0.000000 0.000000 -1.000000
vn 0.000000 0.000000 -1.000000
vn 0.000000 -1.000000 0.000000
vn 0.000000 -1.000000 0.000000
vn 0.000000 -1.000000 0.000000
vn 0.000000 -1.000000 0.000000
vn 0.802409 0.596774 0.000000
vn 0.802409 0.596774 0.000000
vn 0.802409 0.596774 0.000000
vn 0.802409 0.596774 0.000000
vn -0.802409 -0.596774 0.000000
vn -0.802409 -0.596774 0.000000
vn -0.802409 -0.596774 0.000000
vn -0.802409 -0.596774 0.000000
s off
g pCube19 group2
usemtl initialShadingGroup
f 145/231/481 146/232/482 148/234/483 147/233/484
f 147/233/485 148/234/486 150/236/487 149/235/488
f 149/235/489 150/236/490 152/238/491 151/237/492
f 151/237/493 152/238/494 146/240/495 145/239/496
f 146/232/497 152/241/498 150/242/499 148/234/500
f 151/243/501 145/231/502 147/233/503 149/244/504
g default
v -18.683942 0.205960 -17.097989
v -12.957346 0.205960 -17.097989
v -33.962353 20.748979 -17.097989
v -28.235751 20.748979 -17.097989
v -33.962353 20.748979 -20.000666
v -28.235751 20.748979 -20.000666
v -18.683942 0.205960 -20.000666
v -12.957346 0.205960 -20.000666
vt 0.375000 0.000000
vt 0.625000 0.000000
vt 0.375000 0.250000
vt 0.625000 0.250000
vt 0.375000 0.500000
vt 0.625000 0.500000
vt 0.375000 0.750000
vt 0.625000 0.750000
vt 0.375000 1.000000
vt 0.625000 1.000000
vt 0.875000 0.000000
vt 0.875000 0.250000
vt 0.125000 0.000000
vt 0.125000 0.250000
vn 0.000000 0.000000 1.000000
vn 0.000000 0.000000 1.000000
vn 0.000000 0.000000 1.000000
vn 0.000000 0.000000 1.000000
vn 0.000000 1.000000 0.000000
vn 0.000000 1.000000 0.000000
vn 0.000000 1.000000 0.000000
vn 0.000000 1.000000 0.000000
vn 0.000000 0.000000 -1.000000
vn 0.000000 0.000000 -1.000000
vn 0.000000 0.000000 -1.000000
vn 0.000000 0.000000 -1.000000
vn 0.000000 -1.000000 0.000000
vn 0.000000 -1.000000 0.000000
vn 0.000000 -1.000000 0.000000
vn 0.000000 -1.000000 0.000000
vn 0.802409 0.596774 0.000000
vn 0.802409 0.596774 0.000000
vn 0.802409 0.596774 0.000000
vn 0.802409 0.596774 0.000000
vn -0.802409 -0.596774 0.000000
vn -0.802409 -0.596774 0.000000
vn -0.802409 -0.596774 0.000000
vn -0.802409 -0.596774 0.000000
s off
g group2 pCube3
usemtl initialShadingGroup
f 153/245/505 154/246/506 156/248/507 155/247/508
f 155/247/509 156/248/510 158/250/511 157/249/512
f 157/249/513 158/250/514 160/252/515 159/251/516
f 159/251/517 160/252/518 154/254/519 153/253/520
f 154/246/521 160/255/522 158/256/523 156/248/524
f 159/257/525 153/245/526 155/247/527 157/258/528
g default
v 7.110189 36.962161 -185.341691
v 26.258364 36.962161 -185.341691
v 7.110189 37.996735 -185.787209
v 26.258364 37.996735 -185.787209
v 7.110189 35.037839 -192.658309
v 26.258364 35.037839 -192.658309
v 7.110189 34.003265 -192.212791
v 26.258364 34.003265 -192.212791
vt 0.375000 0.000000
vt 0.625000 0.000000
vt 0.375000 0.250000
vt 0.625000 0.250000
vt 0.375000 0.500000
vt 0.625000 0.500000
vt 0.375000 0.750000
vt 0.625000 0.750000
vt 0.375000 1.000000
vt 0.625000 1.000000
vt 0.875000 0.000000
vt 0.875000 0.250000
vt 0.125000 0.000000
vt 0.125000 0.250000
vn 0.000000 0.395515 0.918459
vn 0.000000 0.395515 0.918459
vn 0.000000 0.395515 0.918459
vn 0.000000 0.395515 0.918459
vn 0.000000 0.918459 -0.395515
vn 0.000000 0.918459 -0.395515
vn 0.000000 0.918459 -0.395515
vn 0.000000 0.918459 -0.395515
vn 0.000000 -0.395515 -0.918459
vn 0.000000 -0.395515 -0.918459
vn 0.000000 -0.395515 -0.918459
vn 0.000000 -0.395515 -0.918459
vn 0.000000 -0.918459 0.395515
vn 0.000000 -0.918459 0.395515
vn 0.000000 -0.918459 0.395515
vn 0.000000 -0.918459 0.395515
vn 1.000000 0.000000 0.000000
vn 1.000000 0.000000 0.000000
vn 1.000000 0.000000 0.000000
vn 1.000000 0.000000 0.000000
vn -1.000000 0.000000 0.000000
vn -1.000000 0.000000 0.000000
vn -1.000000 0.000000 0.000000
vn -1.000000 0.000000 0.000000
s off
g group4 group5 pCube30
usemtl initialShadingGroup
f 161/259/529 162/260/530 164/262/531 163/261/532
f 163/261/533 164/262/534 166/264/535 165/263/536
f 165/263/537 166/264/538 168/266/539 167/265/540
f 167/265/541 168/266/542 162/268/543 161/267/544
f 162/260/545 168/269/546 166/270/547 164/262/548
f 167/271/549 161/259/550 163/261/551 165/272/552
g default
v 53.426182 54.913927 -187.497435
v 39.886771 41.469490 -185.889935
v 54.186093 54.119355 -187.742425
v 40.646682 40.674918 -186.134925
v 52.600648 54.846160 -195.017395
v 39.061237 41.401722 -193.409895
v 51.840737 55.640732 -194.772405
v 38.301326 42.196294 -193.164905
vt 0.375000 0.000000
vt 0.625000 0.000000
vt 0.375000 0.250000
vt 0.625000 0.250000
vt 0.375000 0.500000
vt 0.625000 0.500000
vt 0.375000 0.750000
vt 0.625000 0.750000
vt 0.375000 1.000000
vt 0.625000 1.000000
vt 0.875000 0.000000
vt 0.875000 0.250000
vt 0.125000 0.000000
vt 0.125000 0.250000
vn 0.211926 -0.097152 0.972445
vn 0.211926 -0.097152 0.972445
vn 0.211926 -0.097152 0.972445
vn 0.211926 -0.097152 0.972445
vn 0.674623 -0.705394 -0.217494
vn 0.674623 -0.705394 -0.217494
vn 0.674623 -0.705394 -0.217494
vn 0.674623 -0.705394 -0.217494
vn -0.211926 0.097152 -0.972445
vn -0.211926 0.097152 -0.972445
vn -0.211926 0.097152 -0.972445
vn -0.211926 0.097152 -0.972445
vn -0.674623 0.705394 0.217494
vn -0.674623 0.705394 0.217494
vn -0.674623 0.705394 0.217494
vn -0.674623 0.705394 0.217494
vn -0.707086 -0.702126 0.083951
vn -0.707086 -0.702126 0.083951
vn -0.707086 -0.702126 0.083951
vn -0.707086 -0.702126 0.083951
vn 0.707086 0.702126 -0.083951
vn 0.707086 0.702126 -0.083951
vn 0.707086 0.702126 -0.083951
vn 0.707086 0.702126 -0.083951
s off
g group4 group5 pCube33
usemtl initialShadingGroup
f 169/273/553 170/274/554 172/276/555 171/275/556
f 171/275/557 172/276/558 174/278/559 173/277/560
f 173/277/561 174/278/562 176/280/563 175/279/564
f 175/279/565 176/280/566 170/282/567 169/281/568
f 170/274/569 176/283/570 174/284/571 172/276/572
f 175/285/573 169/273/574 171/275/575 173/286/576
g default
v -257.148659 -100.785406 -194.487363
v 257.148659 -100.785406 -194.487363
v -257.148659 100.785406 -194.487363
v 257.148659 100.785406 -194.487363
v -257.148659 100.785406 -195.487363
v 257.148659 100.785406 -195.487363
v -257.148659 -100.785406 -195.487363
v 257.148659 -100.785406 -195.487363
vt 0.375000 0.000000
vt 0.625000 0.000000
vt 0.375000 0.250000
vt 0.625000 0.250000
vt 0.375000 0.500000
vt 0.625000 0.500000
vt 0.375000 0.750000
vt 0.625000 0.750000
vt 0.375000 1.000000
vt 0.625000 1.000000
vt 0.875000 0.000000
vt 0.875000 0.250000
vt 0.125000 0.000000
vt 0.125000 0.250000
vn 0.000000 0.000000 1.000000
vn 0.000000 0.000000 1.000000
vn 0.000000 0.000000 1.000000
vn 0.000000 0.000000 1.000000
vn 0.000000 1.000000 0.000000
vn 0.000000 1.000000 0.000000
vn 0.000000 1.000000 0.000000
vn 0.000000 1.000000 0.000000
vn 0.000000 0.000000 -1.000000
vn 0.000000 0.000000 -1.000000
vn 0.000000 0.000000 -1.000000
vn 0.000000 0.000000 -1.000000
vn 0.000000 -1.000000 0.000000
vn 0.000000 -1.000000 0.000000
vn 0.000000 -1.000000 0.000000
vn 0.000000 -1.000000 0.000000
vn 1.000000 0.000000 0.000000
vn 1.000000 0.000000 0.000000
vn 1.000000 0.000000 0.000000
vn 1.000000 0.000000 0.000000
vn -1.000000 0.000000 0.000000
vn -1.000000 0.000000 0.000000
vn -1.000000 0.000000 0.000000
vn -1.000000 0.000000 0.000000
s off
g pCube22
usemtl initialShadingGroup
f 177/287/577 178/288/578 180/290/579 179/289/580
f 179/289/581 180/290/582 182/292/583 181/291/584
f 181/291/585 182/292/586 184/294/587 183/293/588
f 183/293/589 184/294/590 178/296/591 177/295/592
f 178/288/593 184/297/594 182/298/595 180/290/596
f 183/299/597 177/287/598 179/289/599 181/300/600
g default
v 60.915129 35.843504 -185.405247
v 41.767415 35.858172 -185.273198
v 60.912849 34.736381 -185.612859
v 41.765135 34.751049 -185.480810
v 60.863198 36.115299 -192.965626
v 41.715484 36.129967 -192.833577
v 60.865478 37.222423 -192.758015
v 41.717764 37.237091 -192.625966
vt 0.375000 0.000000
vt 0.625000 0.000000
vt 0.375000 0.250000
vt 0.625000 0.250000
vt 0.375000 0.500000
vt 0.625000 0.500000
vt 0.375000 0.750000
vt 0.625000 0.750000
vt 0.375000 1.000000
vt 0.625000 1.000000
vt 0.875000 0.000000
vt 0.875000 0.250000
vt 0.125000 0.000000
vt 0.125000 0.250000
vn 0.006637 -0.184320 0.982844
vn 0.006637 -0.184320 0.982844
vn 0.006637 -0.184320 0.982844
vn 0.006637 -0.184320 0.982844
vn -0.002024 -0.982866 -0.184310
vn -0.002024 -0.982866 -0.184310
vn -0.002024 -0.982866 -0.184310
vn -0.002024 -0.982866 -0.184310
vn -0.006637 0.184320 -0.982844
vn -0.006637 0.184320 -0.982844
vn -0.006637 0.184320 -0.982844
vn -0.006637 0.184320 -0.982844
vn 0.002024 0.982866 0.184310
vn 0.002024 0.982866 0.184310
vn 0.002024 0.982866 0.184310
vn 0.002024 0.982866 0.184310
vn -0.999976 0.000766 0.006896
vn -0.999976 0.000766 0.006896
vn -0.999976 0.000766 0.006896
vn -0.999976 0.000766 0.006896
vn 0.999976 -0.000766 -0.006896
vn 0.999976 -0.000766 -0.006896
vn 0.999976 -0.000766 -0.006896
vn 0.999976 -0.000766 -0.006896
s off
g group4 group5 pCube34
usemtl initialShadingGroup
f 185/301/601 186/302/602 188/304/603 187/303/604
f 187/303/605 188/304/606 190/306/607 189/305/608
f 189/305/609 190/306/610 192/308/611 191/307/612
f 191/307/613 192/308/614 186/310/615 185/309/616
f 186/302/617 192/311/618 190/312/619 188/304/620
f 191/313/621 185/301/622 187/303/623 189/314/624
g default
v 52.644974 17.100728 -183.294444
v 39.105563 30.570205 -184.676523
v 51.881170 16.308342 -183.534359
v 38.341760 29.777819 -184.916437
v 53.381856 17.068858 -190.823846
v 39.842445 30.538335 -192.205925
v 54.145659 17.861244 -190.583932
v 40.606249 31.330721 -191.966010
vt 0.375000 0.000000
vt 0.625000 0.000000
vt 0.375000 0.250000
vt 0.625000 0.250000
vt 0.375000 0.500000
vt 0.625000 0.500000
vt 0.375000 0.750000
vt 0.625000 0.750000
vt 0.375000 1.000000
vt 0.625000 1.000000
vt 0.875000 0.000000
vt 0.875000 0.250000
vt 0.125000 0.000000
vt 0.125000 0.250000
vn -0.200597 -0.101658 0.974385
vn -0.200597 -0.101658 0.974385
vn -0.200597 -0.101658 0.974385
vn -0.200597 -0.101658 0.974385
vn -0.678078 -0.703453 -0.212988
vn -0.678078 -0.703453 -0.212988
vn -0.678078 -0.703453 -0.212988
vn -0.678078 -0.703453 -0.212988
vn 0.200597 0.101658 -0.974385
vn 0.200597 0.101658 -0.974385
vn 0.200597 0.101658 -0.974385
vn 0.200597 0.101658 -0.974385
vn 0.678078 0.703453 0.212988
vn 0.678078 0.703453 0.212988
vn 0.678078 0.703453 0.212988
vn 0.678078 0.703453 0.212988
vn -0.707086 0.703434 -0.072178
vn -0.707086 0.703434 -0.072178
vn -0.707086 0.703434 -0.072178
vn -0.707086 0.703434 -0.072178
vn 0.707086 -0.703434 0.072178
vn 0.707086 -0.703434 0.072178
vn 0.707086 -0.703434 0.072178
vn 0.707086 -0.703434 0.072178
s off
g group4 group5 pCube35
usemtl initialShadingGroup
f 193/315/625 194/316/626 196/318/627 195/317/628
f 195/317/629 196/318/630 198/320/631 197/319/632
f 197/319/633 198/320/634 200/322/635 199/321/636
f 199/321/637 200/322/638 194/324/639 193/323/640
f 194/316/641 200/325/642 198/326/643 196/318/644
f 199/327/645 193/315/646 195/317/647 197/328/648
g default
v 15.380344 55.704937 -187.452494
v 28.920216 42.250128 -185.938367
v 16.141868 56.424774 -187.865709
v 29.681739 42.969965 -186.351582
v 14.591531 54.084280 -194.800089
v 28.131403 40.629471 -193.285961
v 13.830008 53.364443 -194.386874
v 27.369879 39.909634 -192.872746
vt 0.375000 0.000000
vt 0.625000 0.000000
vt 0.375000 0.250000
vt 0.625000 0.250000
vt 0.375000 0.500000
vt 0.625000 0.500000
vt 0.375000 0.750000
vt 0.625000 0.750000
vt 0.375000 1.000000
vt 0.625000 1.000000
vt 0.875000 0.000000
vt 0.875000 0.250000
vt 0.125000 0.000000
vt 0.125000 0.250000
vn 0.207233 0.312854 0.926918
vn 0.207233 0.312854 0.926918
vn 0.207233 0.312854 0.926918
vn 0.207233 0.312854 0.926918
vn 0.676054 0.639046 -0.366838
vn 0.676054 0.639046 -0.366838
vn 0.676054 0.639046 -0.366838
vn 0.676054 0.639046 -0.366838
vn -0.207233 -0.312854 -0.926918
vn -0.207233 -0.312854 -0.926918
vn -0.207233 -0.312854 -0.926918
vn -0.207233 -0.312854 -0.926918
vn -0.676054 -0.639046 0.366838
vn -0.676054 -0.639046 0.366838
vn -0.676054 -0.639046 0.366838
vn -0.676054 -0.639046 0.366838
vn 0.707110 -0.702668 0.079074
vn 0.707110 -0.702668 0.079074
vn 0.707110 -0.702668 0.079074
vn 0.707110 -0.702668 0.079074
vn -0.707110 0.702668 -0.079074
vn -0.707110 0.702668 -0.079074
vn -0.707110 0.702668 -0.079074
vn -0.707110 0.702668 -0.079074
s off
g group4 group5 pCube31
usemtl initialShadingGroup
f 201/329/649 202/330/650 204/332/651 203/331/652
f 203/331/653 204/332/654 206/334/655 205/333/656
f 205/333/657 206/334/658 208/336/659 207/335/660
f 207/335/661 208/336/662 202/338/663 201/337/664
f 202/330/665 208/339/666 206/340/667 204/332/668
f 207/341/669 201/329/670 203/331/671 205/342/672
g default
v 14.599136 17.891738 -183.249504
v 28.139008 31.350843 -184.724955
v 13.836945 18.613760 -183.657643
v 27.376817 32.072866 -185.133094
v 15.372739 16.306979 -190.606540
v 28.912611 29.766084 -192.081991
v 16.134930 15.584956 -190.198401
v 29.674802 29.044061 -191.673852
vt 0.375000 0.000000
vt 0.625000 0.000000
vt 0.375000 0.250000
vt 0.625000 0.250000
vt 0.375000 0.500000
vt 0.625000 0.500000
vt 0.375000 0.750000
vt 0.625000 0.750000
vt 0.375000 1.000000
vt 0.625000 1.000000
vt 0.875000 0.000000
vt 0.875000 0.250000
vt 0.125000 0.000000
vt 0.125000 0.250000
vn -0.205289 0.308347 0.928859
vn -0.205289 0.308347 0.928859
vn -0.205289 0.308347 0.928859
vn -0.205289 0.308347 0.928859
vn -0.676647 0.640987 -0.362332
vn -0.676647 0.640987 -0.362332
vn -0.676647 0.640987 -0.362332
vn -0.676647 0.640987 -0.362332
vn 0.205289 -0.308347 -0.928859
vn 0.205289 -0.308347 -0.928859
vn 0.205289 -0.308347 -0.928859
vn 0.205289 -0.308347 -0.928859
vn 0.676647 -0.640987 0.362332
vn 0.676647 -0.640987 0.362332
vn 0.676647 -0.640987 0.362332
vn 0.676647 -0.640987 0.362332
vn 0.707110 0.702892 -0.077054
vn 0.707110 0.702892 -0.077054
vn 0.707110 0.702892 -0.077054
vn 0.707110 0.702892 -0.077054
vn -0.707110 -0.702892 0.077054
vn -0.707110 -0.702892 0.077054
vn -0.707110 -0.702892 0.077054
vn -0.707110 -0.702892 0.077054
s off
g group4 group5 pCube37
usemtl initialShadingGroup
f 209/343/673 210/344/674 212/346/675 211/345/676
f 211/345/677 212/346/678 214/348/679 213/347/680
f 213/347/681 214/348/682 216/350/683 215/349/684
f 215/349/685 216/350/686 210/352/687 209/351/688
f 210/344/689 216/353/690 214/354/691 212/346/692
f 215/355/693 209/343/694 211/345/695 213/356/696
g default
v 39.289946 41.289946 -196.481114
v 34.000000 43.481114 -196.481114
v 28.710054 41.289946 -196.481114
v 26.518886 36.000000 -196.481114
v 28.710054 30.710054 -196.481114
v 34.000000 28.518886 -196.481114
v 39.289947 30.710053 -196.481114
v 41.481114 36.000000 -196.481114
v 39.289946 41.289946 -181.518886
v 34.000000 43.481114 -181.518886
v 28.710054 41.289946 -181.518886
v 26.518886 36.000000 -181.518886
v 28.710054 30.710054 -181.518886
v 34.000000 28.518886 -181.518886
v 39.289947 30.710053 -181.518886
v 41.481114 36.000000 -181.518886
v 34.000000 36.000000 -196.481114
v 34.000000 36.000000 -181.518886
vt 0.610485 0.045765
vt 0.500000 0.000000
vt 0.389515 0.045765
vt 0.343750 0.156250
vt 0.389515 0.266735
vt 0.500000 0.312500
vt 0.610485 0.266735
vt 0.656250 0.156250
vt 0.375000 0.312500
vt 0.406250 0.312500
vt 0.437500 0.312500
vt 0.468750 0.312500
vt 0.500000 0.312500
vt 0.531250 0.312500
vt 0.562500 0.312500
vt 0.593750 0.312500
vt 0.625000 0.312500
vt 0.375000 0.687500
vt 0.406250 0.687500
vt 0.437500 0.687500
vt 0.468750 0.687500
vt 0.500000 0.687500
vt 0.531250 0.687500
vt 0.562500 0.687500
vt 0.593750 0.687500
vt 0.625000 0.687500
vt 0.610485 0.733265
vt 0.500000 0.687500
vt 0.389515 0.733265
vt 0.343750 0.843750
vt 0.389515 0.954235
vt 0.500000 1.000000
vt 0.610485 0.954235
vt 0.656250 0.843750
vt 0.500000 0.156250
vt 0.500000 0.843750
vn 0.382683 0.923880 0.000000
vn 0.382683 0.923880 0.000000
vn 0.382683 0.923880 0.000000
vn 0.382683 0.923880 0.000000
vn -0.382683 0.923880 0.000000
vn -0.382683 0.923880 0.000000
vn -0.382683 0.923880 0.000000
vn -0.382683 0.923880 0.000000
vn -0.923880 0.382683 0.000000
vn -0.923880 0.382683 0.000000
vn -0.923880 0.382683 0.000000
vn -0.923880 0.382683 0.000000
vn -0.923880 -0.382683 -0.000000
vn -0.923880 -0.382683 -0.000000
vn -0.923880 -0.382683 -0.000000
vn -0.923880 -0.382683 -0.000000
vn -0.382683 -0.923880 -0.000000
vn -0.382683 -0.923880 -0.000000
vn -0.382683 -0.923880 -0.000000
vn -0.382683 -0.923880 -0.000000
vn 0.382683 -0.923880 -0.000000
vn 0.382683 -0.923880 -0.000000
vn 0.382683 -0.923880 -0.000000
vn 0.382683 -0.923880 -0.000000
vn 0.923880 -0.382683 -0.000000
vn 0.923880 -0.382683 -0.000000
vn 0.923880 -0.382683 -0.000000
vn 0.923880 -0.382683 -0.000000
vn 0.923880 0.382684 0.000000
vn 0.923880 0.382684 0.000000
vn 0.923880 0.382684 0.000000
vn 0.923880 0.382684 0.000000
vn 0.000000 0.000000 -1.000000
vn 0.000000 0.000000 -1.000000
vn 0.000000 0.000000 -1.000000
vn 0.000000 0.000000 -1.000000
vn 0.000000 0.000000 -1.000000
vn 0.000000 0.000000 -1.000000
vn 0.000000 0.000000 -1.000000
vn 0.000000 0.000000 -1.000000
vn 0.000000 0.000000 -1.000000
vn 0.000000 -0.000000 1.000000
vn 0.000000 -0.000000 1.000000
vn 0.000000 -0.000000 1.000000
vn 0.000000 -0.000000 1.000000
vn 0.000000 -0.000000 1.000000
vn 0.000000 -0.000000 1.000000
vn 0.000000 -0.000000 1.000000
vn 0.000000 -0.000000 1.000000
vn 0.000000 -0.000000 1.000000
s off
g group4 group5 pCylinder9
usemtl initialShadingGroup
f 217/365/697 218/366/698 226/375/699 225/374/700
f 218/366/701 219/367/702 227/376/703 226/375/704
f 219/367/705 220/368/706 228/377/707 227/376/708
f 220/368/709 221/369/710 229/378/711 228/377/712
f 221/369/713 222/370/714 230/379/715 229/378/716
f 222/370/717 223/371/718 231/380/719 230/379/720
f 223/371/721 224/372/722 232/381/723 231/380/724
f 224/372/725 217/373/726 225/382/727 232/381/728
s 1
f 218/358/729 217/357/730 233/391/731
f 219/359/732 218/358/729 233/391/731
f 220/360/733 219/359/732 233/391/731
f 221/361/734 220/360/733 233/391/731
f 222/362/735 221/361/734 233/391/731
f 223/363/736 222/362/735 233/391/731
f 224/364/737 223/363/736 233/391/731
f 217/357/730 224/364/737 233/391/731
s 2
f 225/389/738 226/388/739 234/392/740
f 226/388/739 227/387/741 234/392/740
f 227/387/741 228/386/742 234/392/740
f 228/386/742 229/385/743 234/392/740
f 229/385/743 230/384/744 234/392/740
f 230/384/744 231/383/745 234/392/740
f 231/383/745 232/390/746 234/392/740
f 232/390/746 225/389/738 234/392/740
g default
v -10.208622 -0.915978 -209.834313
v -6.111570 -0.915978 -209.834313
v -21.139451 13.095853 -209.834313
v -17.042395 13.095853 -209.834313
v -21.139451 13.095853 -212.736990
v -17.042395 13.095853 -212.736990
v -10.208622 -0.915978 -212.736990
v -6.111570 -0.915978 -212.736990
vt 0.375000 0.000000
vt 0.625000 0.000000
vt 0.375000 0.250000
vt 0.625000 0.250000
vt 0.375000 0.500000
vt 0.625000 0.500000
vt 0.375000 0.750000
vt 0.625000 0.750000
vt 0.375000 1.000000
vt 0.625000 1.000000
vt 0.875000 0.000000
vt 0.875000 0.250000
vt 0.125000 0.000000
vt 0.125000 0.250000
vn 0.000000 0.000000 1.000000
vn 0.000000 0.000000 1.000000
vn 0.000000 0.000000 1.000000
vn 0.000000 0.000000 1.000000
vn 0.000000 1.000000 0.000000
vn 0.000000 1.000000 0.000000
vn 0.000000 1.000000 0.000000
vn 0.000000 1.000000 0.000000
vn 0.000000 0.000000 -1.000000
vn 0.000000 0.000000 -1.000000
vn 0.000000 0.000000 -1.000000
vn 0.000000 0.000000 -1.000000
vn 0.000000 -1.000000 0.000000
vn 0.000000 -1.000000 0.000000
vn 0.000000 -1.000000 0.000000
vn 0.000000 -1.000000 0.000000
vn 0.788459 0.615088 0.000000
vn 0.788459 0.615088 0.000000
vn 0.788459 0.615088 0.000000
vn 0.788459 0.615088 0.000000
vn -0.788459 -0.615088 0.000000
vn -0.788459 -0.615088 0.000000
vn -0.788459 -0.615088 0.000000
vn -0.788459 -0.615088 0.000000
s off
g group2 pCube21
usemtl initialShadingGroup
f 235/393/747 236/394/748 238/396/749 237/395/750
f 237/395/751 238/396/752 240/398/753 239/397/754
f 239/397/755 240/398/756 242/400/757 241/399/758
f 241/399/759 242/400/760 236/402/761 235/401/762
f 236/394/763 242/403/764 240/404/765 238/396/766
f 241/405/767 235/393/768 237/395/769 239/406/770
g default
v -18.683942 0.205960 -65.282070
v -12.957346 0.205960 -65.282070
v -33.962353 20.748979 -65.282070
v -28.235751 20.748979 -65.282070
v -33.962353 20.748979 -68.184747
v -28.235751 20.748979 -68.184747
v -18.683942 0.205960 -68.184747
v -12.957346 0.205960 -68.184747
vt 0.375000 0.000000
vt 0.625000 0.000000
vt 0.375000 0.250000
vt 0.625000 0.250000
vt 0.375000 0.500000
vt 0.625000 0.500000
vt 0.375000 0.750000
vt 0.625000 0.750000
vt 0.375000 1.000000
vt 0.625000 1.000000
vt 0.875000 0.000000
vt 0.875000 0.250000
vt 0.125000 0.000000
vt 0.125000 0.250000
vn 0.000000 0.000000 1.000000
vn 0.000000 0.000000 1.000000
vn 0.000000 0.000000 1.000000
vn 0.000000 0.000000 1.000000
vn 0.000000 1.000000 0.000000
vn 0.000000 1.000000 0.000000
vn 0.000000 1.000000 0.000000
vn 0.000000 1.000000 0.000000
vn 0.000000 0.000000 -1.000000
vn 0.000000 0.000000 -1.000000
vn 0.000000 0.000000 -1.000000
vn 0.000000 0.000000 -1.000000
vn 0.000000 -1.000000 0.000000
vn 0.000000 -1.000000 0.000000
vn 0.000000 -1.000000 0.000000
vn 0.000000 -1.000000 0.000000
vn 0.802409 0.596774 0.000000
vn 0.802409 0.596774 0.000000
vn 0.802409 0.596774 0.000000
vn 0.802409 0.596774 0.000000
vn -0.802409 -0.596774 0.000000
vn -0.802409 -0.596774 0.000000
vn -0.802409 -0.596774 0.000000
vn -0.802409 -0.596774 0.000000
s off
g group2 pCube15
usemtl initialShadingGroup
f 243/407/771 244/408/772 246/410/773 245/409/774
f 245/409/775 246/410/776 248/412/777 247/411/778
f 247/411/779 248/412/780 250/414/781 249/413/782
f 249/413/783 250/414/784 244/416/785 243/415/786
f 244/408/787 250/417/788 248/418/789 246/410/790
f 249/419/791 243/407/792 245/409/793 247/420/794
g default
v -18.683942 0.205960 -113.466151
v -12.957346 0.205960 -113.466151
v -33.962353 20.748979 -113.466151
v -28.235751 20.748979 -113.466151
v -33.962353 20.748979 -116.368828
v -28.235751 20.748979 -116.368828
v -18.683942 0.205960 -116.368828
v -12.957346 0.205960 -116.368828
vt 0.375000 0.000000
vt 0.625000 0.000000
vt 0.375000 0.250000
vt 0.625000 0.250000
vt 0.375000 0.500000
vt 0.625000 0.500000
vt 0.375000 0.750000
vt 0.625000 0.750000
vt 0.375000 1.000000
vt 0.625000 1.000000
vt 0.875000 0.000000
vt 0.875000 0.250000
vt 0.125000 0.000000
vt 0.125000 0.250000
vn 0.000000 0.000000 1.000000
vn 0.000000 0.000000 1.000000
vn 0.000000 0.000000 1.000000
vn 0.000000 0.000000 1.000000
vn 0.000000 1.000000 0.000000
vn 0.000000 1.000000 0.000000
vn 0.000000 1.000000 0.000000
vn 0.000000 1.000000 0.000000
vn 0.000000 0.000000 -1.000000
vn 0.000000 0.000000 -1.000000
vn 0.000000 0.000000 -1.000000
vn 0.000000 0.000000 -1.000000
vn 0.000000 -1.000000 0.000000
vn 0.000000 -1.000000 0.000000
vn 0.000000 -1.000000 0.000000
vn 0.000000 -1.000000 0.000000
vn 0.802409 0.596774 0.000000
vn 0.802409 0.596774 0.000000
vn 0.802409 0.596774 0.000000
vn 0.802409 0.596774 0.000000
vn -0.802409 -0.596774 0.000000
vn -0.802409 -0.596774 0.000000
vn -0.802409 -0.596774 0.000000
vn -0.802409 -0.596774 0.000000
s off
g group2 pCube17
usemtl initialShadingGroup
f 251/421/795 252/422/796 254/424/797 253/423/798
f 253/423/799 254/424/800 256/426/801 255/425/802
f 255/425/803 256/426/804 258/428/805 257/427/806
f 257/427/807 258/428/808 252/430/809 251/429/810
f 252/422/811 258/431/812 256/432/813 254/424/814
f 257/433/815 251/421/816 253/423/817 255/434/818
g default
v -9.875273 -15.709855 -47.329334
v 9.875273 -15.709855 -47.329334
v -9.875273 -14.709855 -47.329334
v 9.875273 -14.709855 -47.329334
v -9.875273 -14.709855 -48.329334
v 9.875273 -14.709855 -48.329334
v -9.875273 -15.709855 -48.329334
v 9.875273 -15.709855 -48.329334
vt 0.375000 0.000000
vt 0.625000 0.000000
vt 0.375000 0.250000
vt 0.625000 0.250000
vt 0.375000 0.500000
vt 0.625000 0.500000
vt 0.375000 0.750000
vt 0.625000 0.750000
vt 0.375000 1.000000
vt 0.625000 1.000000
vt 0.875000 0.000000
vt 0.875000 0.250000
vt 0.125000 0.000000
vt 0.125000 0.250000
vn 0.000000 0.000000 1.000000
vn 0.000000 0.000000 1.000000
vn 0.000000 0.000000 1.000000
vn 0.000000 0.000000 1.000000
vn 0.000000 1.000000 0.000000
vn 0.000000 1.000000 0.000000
vn 0.000000 1.000000 0.000000
vn 0.000000 1.000000 0.000000
vn 0.000000 0.000000 -1.000000
vn 0.000000 0.000000 -1.000000
vn 0.000000 0.000000 -1.000000
vn 0.000000 0.000000 -1.000000
vn 0.000000 -1.000000 0.000000
vn 0.000000 -1.000000 0.000000
vn 0.000000 -1.000000 0.000000
vn 0.000000 -1.000000 0.000000
vn 1.000000 0.000000 0.000000
vn 1.000000 0.000000 0.000000
vn 1.000000 0.000000 0.000000
vn 1.000000 0.000000 0.000000
vn -1.000000 0.000000 0.000000
vn -1.000000 0.000000 0.000000
vn -1.000000 0.000000 0.000000
vn -1.000000 0.000000 0.000000
s off
g pCube23 group3
usemtl initialShadingGroup
f 259/435/819 260/436/820 262/438/821 261/437/822
f 261/437/823 262/438/824 264/440/825 263/439/826
f 263/439/827 264/440/828 266/442/829 265/441/830
f 265/441/831 266/442/832 260/444/833 259/443/834
f 260/436/835 266/445/836 264/446/837 262/438/838
f 265/447/839 259/435/840 261/437/841 263/448/842
g default
v -9.875273 -22.331769 -157.894827
v 9.875273 -22.331769 -157.894827
v -9.875273 -21.331769 -157.894827
v 9.875273 -21.331769 -157.894827
v -9.875273 -21.331769 -158.894827
v 9.875273 -21.331769 -158.894827
v -9.875273 -22.331769 -158.894827
v 9.875273 -22.331769 -158.894827
vt 0.375000 0.000000
vt 0.625000 0.000000
vt 0.375000 0.250000
vt 0.625000 0.250000
vt 0.375000 0.500000
vt 0.625000 0.500000
vt 0.375000 0.750000
vt 0.625000 0.750000
vt 0.375000 1.000000
vt 0.625000 1.000000
vt 0.875000 0.000000
vt 0.875000 0.250000
vt 0.125000 0.000000
vt 0.125000 0.250000
vn 0.000000 0.000000 1.000000
vn 0.000000 0.000000 1.000000
vn 0.000000 0.000000 1.000000
vn 0.000000 0.000000 1.000000
vn 0.000000 1.000000 0.000000
vn 0.000000 1.000000 0.000000
vn 0.000000 1.000000 0.000000
vn 0.000000 1.000000 0.000000
vn 0.000000 0.000000 -1.000000
vn 0.000000 0.000000 -1.000000
vn 0.000000 0.000000 -1.000000
vn 0.000000 0.000000 -1.000000
vn 0.000000 -1.000000 0.000000
vn 0.000000 -1.000000 0.000000
vn 0.000000 -1.000000 0.000000
vn 0.000000 -1.000000 0.000000
vn 1.000000 0.000000 0.000000
vn 1.000000 0.000000 0.000000
vn 1.000000 0.000000 0.000000
vn 1.000000 0.000000 0.000000
vn -1.000000 0.000000 0.000000
vn -1.000000 0.000000 0.000000
vn -1.000000 0.000000 0.000000
vn -1.000000 0.000000 0.000000
s off
g group3 pCube28
usemtl initialShadingGroup
f 267/449/843 268/450/844 270/452/845 269/451/846
f 269/451/847 270/452/848 272/454/849 271/453/850
f 271/453/851 272/454/852 274/456/853 273/455/854
f 273/455/855 274/456/856 268/458/857 267/457/858
f 268/450/859 274/459/860 272/460/861 270/452/862
f 273/461/863 267/449/864 269/451/865 271/462/866
g default
v -9.875273 -13.054546 -69.442433
v 9.875273 -13.054546 -69.442433
v -9.875273 -12.054546 -69.442433
v 9.875273 -12.054546 -69.442433
v -9.875273 -12.054546 -70.442433
v 9.875273 -12.054546 -70.442433
v -9.875273 -13.054546 -70.442433
v 9.875273 -13.054546 -70.442433
vt 0.375000 0.000000
vt 0.625000 0.000000
vt 0.375000 0.250000
vt 0.625000 0.250000
vt 0.375000 0.500000
vt 0.625000 0.500000
vt 0.375000 0.750000
vt 0.625000 0.750000
vt 0.375000 1.000000
vt 0.625000 1.000000
vt 0.875000 0.000000
vt 0.875000 0.250000
vt 0.125000 0.000000
vt 0.125000 0.250000
vn 0.000000 0.000000 1.000000
vn 0.000000 0.000000 1.000000
vn 0.000000 0.000000 1.000000
vn 0.000000 0.000000 1.000000
vn 0.000000 1.000000 0.000000
vn 0.000000 1.000000 0.000000
vn 0.000000 1.000000 0.000000
vn 0.000000 1.000000 0.000000
vn 0.000000 0.000000 -1.000000
vn 0.000000 0.000000 -1.000000
vn 0.000000 0.000000 -1.000000
vn 0.000000 0.000000 -1.000000
vn 0.000000 -1.000000 0.000000
vn 0.000000 -1.000000 0.000000
vn 0.000000 -1.000000 0.000000
vn 0.000000 -1.000000 0.000000
vn 1.000000 0.000000 0.000000
vn 1.000000 0.000000 0.000000
vn 1.000000 0.000000 0.000000
vn 1.000000 0.000000 0.000000
vn -1.000000 0.000000 0.000000
vn -1.000000 0.000000 0.000000
vn -1.000000 0.000000 0.000000
vn -1.000000 0.000000 0.000000
s off
g group3 pCube24
usemtl initialShadingGroup
f 275/463/867 276/464/868 278/466/869 277/465/870
f 277/465/871 278/466/872 280/468/873 279/467/874
f 279/467/875 280/468/876 282/470/877 281/469/878
f 281/469/879 282/470/880 276/472/881 275/471/882
f 276/464/883 282/473/884 280/474/885 278/466/886
f 281/475/887 275/463/888 277/465/889 279/476/890
g default
v -9.875273 -37.437715 -180.007925
v 9.875273 -37.437715 -180.007925
v -9.875273 -36.437715 -180.007925
v 9.875273 -36.437715 -180.007925
v -9.875273 -36.437715 -181.007925
v 9.875273 -36.437715 -181.007925
v -9.875273 -37.437715 -181.007925
v 9.875273 -37.437715 -181.007925
vt 0.375000 0.000000
vt 0.625000 0.000000
vt 0.375000 0.250000
vt 0.625000 0.250000
vt 0.375000 0.500000
vt 0.625000 0.500000
vt 0.375000 0.750000
vt 0.625000 0.750000
vt 0.375000 1.000000
vt 0.625000 1.000000
vt 0.875000 0.000000
vt 0.875000 0.250000
vt 0.125000 0.000000
vt 0.125000 0.250000
vn 0.000000 0.000000 1.000000
vn 0.000000 0.000000 1.000000
vn 0.000000 0.000000 1.000000
vn 0.000000 0.000000 1.000000
vn 0.000000 1.000000 0.000000
vn 0.000000 1.000000 0.000000
vn 0.000000 1.000000 0.000000
vn 0.000000 1.000000 0.000000
vn 0.000000 0.000000 -1.000000
vn 0.000000 0.000000 -1.000000
vn 0.000000 0.000000 -1.000000
vn 0.000000 0.000000 -1.000000
vn 0.000000 -1.000000 0.000000
vn 0.000000 -1.000000 0.000000
vn 0.000000 -1.000000 0.000000
vn 0.000000 -1.000000 0.000000
vn 1.000000 0.000000 0.000000
vn 1.000000 0.000000 0.000000
vn 1.000000 0.000000 0.000000
vn 1.000000 0.000000 0.000000
vn -1.000000 0.000000 0.000000
vn -1.000000 0.000000 0.000000
vn -1.000000 0.000000 0.000000
vn -1.000000 0.000000 0.000000
s off
g group3 pCube29
usemtl initialShadingGroup
f 283/477/891 284/478/892 286/480/893 285/479/894
f 285/479/895 286/480/896 288/482/897 287/481/898
f 287/481/899 288/482/900 290/484/901 289/483/902
f 289/483/903 290/484/904 284/486/905 283/485/906
f 284/478/907 290/487/908 288/488/909 286/480/910
f 289/489/911 283/477/912 285/479/913 287/490/914
g default
v -9.875273 -4.438285 -91.555531
v 9.875273 -4.438285 -91.555531
v -9.875273 -3.438285 -91.555531
v 9.875273 -3.438285 -91.555531
v -9.875273 -3.438285 -92.555531
v 9.875273 -3.438285 -92.555531
v -9.875273 -4.438285 -92.555531
v 9.875273 -4.438285 -92.555531
vt 0.375000 0.000000
vt 0.625000 0.000000
vt 0.375000 0.250000
vt 0.625000 0.250000
vt 0.375000 0.500000
vt 0.625000 0.500000
vt 0.375000 0.750000
vt 0.625000 0.750000
vt 0.375000 1.000000
vt 0.625000 1.000000
vt 0.875000 0.000000
vt 0.875000 0.250000
vt 0.125000 0.000000
vt 0.125000 0.250000
vn 0.000000 0.000000 1.000000
vn 0.000000 0.000000 1.000000
vn 0.000000 0.000000 1.000000
vn 0.000000 0.000000 1.000000
vn 0.000000 1.000000 0.000000
vn 0.000000 1.000000 0.000000
vn 0.000000 1.000000 0.000000
vn 0.000000 1.000000 0.000000
vn 0.000000 0.000000 -1.000000
vn 0.000000 0.000000 -1.000000
vn 0.000000 0.000000 -1.000000
vn 0.000000 0.000000 -1.000000
vn 0.000000 -1.000000 0.000000
vn 0.000000 -1.000000 0.000000
vn 0.000000 -1.000000 0.000000
vn 0.000000 -1.000000 0.000000
vn 1.000000 0.000000 0.000000
vn 1.000000 0.000000 0.000000
vn 1.000000 0.000000 0.000000
vn 1.000000 0.000000 0.000000
vn -1.000000 0.000000 0.000000
vn -1.000000 0.000000 0.000000
vn -1.000000 0.000000 0.000000
vn -1.000000 0.000000 0.000000
s off
g group3 pCube25
usemtl initialShadingGroup
f 291/491/915 292/492/916 294/494/917 293/493/918
f 293/493/919 294/494/920 296/496/921 295/495/922
f 295/495/923 296/496/924 298/498/925 297/497/926
f 297/497/927 298/498/928 292/500/929 291/499/930
f 292/492/931 298/501/932 296/502/933 294/494/934
f 297/503/935 291/491/936 293/493/937 295/504/938
g default
v -0.500000 -0.500000 0.500000
v 0.500000 -0.500000 0.500000
v -0.500000 0.500000 0.500000
v 0.500000 0.500000 0.500000
v -0.500000 0.500000 -0.500000
v 0.500000 0.500000 -0.500000
v -0.500000 -0.500000 -0.500000
v 0.500000 -0.500000 -0.500000
vt 0.375000 0.000000
vt 0.625000 0.000000
vt 0.375000 0.250000
vt 0.625000 0.250000
vt 0.375000 0.500000
vt 0.625000 0.500000
vt 0.375000 0.750000
vt 0.625000 0.750000
vt 0.375000 1.000000
vt 0.625000 1.000000
vt 0.875000 0.000000
vt 0.875000 0.250000
vt 0.125000 0.000000
vt 0.125000 0.250000
vn 0.000000 0.000000 1.000000
vn 0.000000 0.000000 1.000000
vn 0.000000 0.000000 1.000000
vn 0.000000 0.000000 1.000000
vn 0.000000 1.000000 0.000000
vn 0.000000 1.000000 0.000000
vn 0.000000 1.000000 0.000000
vn 0.000000 1.000000 0.000000
vn 0.000000 0.000000 -1.000000
vn 0.000000 0.000000 -1.000000
vn 0.000000 0.000000 -1.000000
vn 0.000000 0.000000 -1.000000
vn 0.000000 -1.000000 0.000000
vn 0.000000 -1.000000 0.000000
vn 0.000000 -1.000000 0.000000
vn 0.000000 -1.000000 0.000000
vn 1.000000 0.000000 0.000000
vn 1.000000 0.000000 0.000000
vn 1.000000 0.000000 0.000000
vn 1.000000 0.000000 0.000000
vn -1.000000 0.000000 0.000000
vn -1.000000 0.000000 0.000000
vn -1.000000 0.000000 0.000000
vn -1.000000 0.000000 0.000000
s off
g pCube12
usemtl initialShadingGroup
f 299/505/939 300/506/940 302/508/941 301/507/942
f 301/507/943 302/508/944 304/510/945 303/509/946
f 303/509/947 304/510/948 306/512/949 305/511/950
f 305/511/951 306/512/952 300/514/953 299/513/954
f 300/506/955 306/515/956 304/516/957 302/508/958
f 305/517/959 299/505/960 301/507/961 303/518/962
g default
v -9.875273 -8.378623 -113.668630
v 9.875273 -8.378623 -113.668630
v -9.875273 -7.378623 -113.668630
v 9.875273 -7.378623 -113.668630
v -9.875273 -7.378623 -114.668630
v 9.875273 -7.378623 -114.668630
v -9.875273 -8.378623 -114.668630
v 9.875273 -8.378623 -114.668630
vt 0.375000 0.000000
vt 0.625000 0.000000
vt 0.375000 0.250000
vt 0.625000 0.250000
vt 0.375000 0.500000
vt 0.625000 0.500000
vt 0.375000 0.750000
vt 0.625000 0.750000
vt 0.375000 1.000000
vt 0.625000 1.000000
vt 0.875000 0.000000
vt 0.875000 0.250000
vt 0.125000 0.000000
vt 0.125000 0.250000
vn 0.000000 0.000000 1.000000
vn 0.000000 0.000000 1.000000
vn 0.000000 0.000000 1.000000
vn 0.000000 0.000000 1.000000
vn 0.000000 1.000000 0.000000
vn 0.000000 1.000000 0.000000
vn 0.000000 1.000000 0.000000
vn 0.000000 1.000000 0.000000
vn 0.000000 0.000000 -1.000000
vn 0.000000 0.000000 -1.000000
vn 0.000000 0.000000 -1.000000
vn 0.000000 0.000000 -1.000000
vn 0.000000 -1.000000 0.000000
vn 0.000000 -1.000000 0.000000
vn 0.000000 -1.000000 0.000000
vn 0.000000 -1.000000 0.000000
vn 1.000000 0.000000 0.000000
vn 1.000000 0.000000 0.000000
vn 1.000000 0.000000 0.000000
vn 1.000000 0.000000 0.000000
vn -1.000000 0.000000 0.000000
vn -1.000000 0.000000 0.000000
vn -1.000000 0.000000 0.000000
vn -1.000000 0.000000 0.000000
s off
g group3 pCube26
usemtl initialShadingGroup
f 307/519/963 308/520/964 310/522/965 309/521/966
f 309/521/967 310/522/968 312/524/969 311/523/970
f 311/523/971 312/524/972 314/526/973 313/525/974
f 313/525/975 314/526/976 308/528/977 307/527/978
f 308/520/979 314/529/980 312/530/981 310/522/982
f 313/531/983 307/519/984 309/521/985 311/532/986
g default
v -9.875273 -13.979288 -7.880786
v 9.875273 -13.979288 -7.880786
v -9.875273 -12.979288 -7.880786
v 9.875273 -12.979288 -7.880786
v -9.875273 -12.979288 -8.880786
v 9.875273 -12.979288 -8.880786
v -9.875273 -13.979288 -8.880786
v 9.875273 -13.979288 -8.880786
vt 0.375000 0.000000
vt 0.625000 0.000000
vt 0.375000 0.250000
vt 0.625000 0.250000
vt 0.375000 0.500000
vt 0.625000 0.500000
vt 0.375000 0.750000
vt 0.625000 0.750000
vt 0.375000 1.000000
vt 0.625000 1.000000
vt 0.875000 0.000000
vt 0.875000 0.250000
vt 0.125000 0.000000
vt 0.125000 0.250000
vn 0.000000 0.000000 1.000000
vn 0.000000 0.000000 1.000000
vn 0.000000 0.000000 1.000000
vn 0.000000 0.000000 1.000000
vn 0.000000 1.000000 0.000000
vn 0.000000 1.000000 0.000000
vn 0.000000 1.000000 0.000000
vn 0.000000 1.000000 0.000000
vn 0.000000 0.000000 -1.000000
vn 0.000000 0.000000 -1.000000
vn 0.000000 0.000000 -1.000000
vn 0.000000 0.000000 -1.000000
vn 0.000000 -1.000000 0.000000
vn 0.000000 -1.000000 0.000000
vn 0.000000 -1.000000 0.000000
vn 0.000000 -1.000000 0.000000
vn 1.000000 0.000000 0.000000
vn 1.000000 0.000000 0.000000
vn 1.000000 0.000000 0.000000
vn 1.000000 0.000000 0.000000
vn -1.000000 0.000000 0.000000
vn -1.000000 0.000000 0.000000
vn -1.000000 0.000000 0.000000
vn -1.000000 0.000000 0.000000
s off
g group3 pCube8
usemtl initialShadingGroup
f 315/533/987 316/534/988 318/536/989 317/535/990
f 317/535/991 318/536/992 320/538/993 319/537/994
f 319/537/995 320/538/996 322/540/997 321/539/998
f 321/539/999 322/540/1000 316/542/1001 315/541/1002
f 316/534/1003 322/543/1004 320/544/1005 318/536/1006
f 321/545/1007 315/533/1008 317/535/1009 319/546/1010
g default
v -9.875273 -6.144875 -135.781728
v 9.875273 -6.144875 -135.781728
v -9.875273 -5.144875 -135.781728
v 9.875273 -5.144875 -135.781728
v -9.875273 -5.144875 -136.781728
v 9.875273 -5.144875 -136.781728
v -9.875273 -6.144875 -136.781728
v 9.875273 -6.144875 -136.781728
vt 0.375000 0.000000
vt 0.625000 0.000000
vt 0.375000 0.250000
vt 0.625000 0.250000
vt 0.375000 0.500000
vt 0.625000 0.500000
vt 0.375000 0.750000
vt 0.625000 0.750000
vt 0.375000 1.000000
vt 0.625000 1.000000
vt 0.875000 0.000000
vt 0.875000 0.250000
vt 0.125000 0.000000
vt 0.125000 0.250000
vn 0.000000 0.000000 1.000000
vn 0.000000 0.000000 1.000000
vn 0.000000 0.000000 1.000000
vn 0.000000 0.000000 1.000000
vn 0.000000 1.000000 0.000000
vn 0.000000 1.000000 0.000000
vn 0.000000 1.000000 0.000000
vn 0.000000 1.000000 0.000000
vn 0.000000 0.000000 -1.000000
vn 0.000000 0.000000 -1.000000
vn 0.000000 0.000000 -1.000000
vn 0.000000 0.000000 -1.000000
vn 0.000000 -1.000000 0.000000
vn 0.000000 -1.000000 0.000000
vn 0.000000 -1.000000 0.000000
vn 0.000000 -1.000000 0.000000
vn 1.000000 0.000000 0.000000
vn 1.000000 0.000000 0.000000
vn 1.000000 0.000000 0.000000
vn 1.000000 0.000000 0.000000
vn -1.000000 0.000000 0.000000
vn -1.000000 0.000000 0.000000
vn -1.000000 0.000000 0.000000
vn -1.000000 0.000000 0.000000
s off
g group3 pCube27
usemtl initialShadingGroup
f 323/547/1011 324/548/1012 326/550/1013 325/549/1014
f 325/549/1015 326/550/1016 328/552/1017 327/551/1018
f 327/551/1019 328/552/1020 330/554/1021 329/553/1022
f 329/553/1023 330/554/1024 324/556/1025 323/555/1026
f 324/548/1027 330/557/1028 328/558/1029 326/550/1030
f 329/559/1031 323/547/1032 325/549/1033 327/560/1034
g default
v -9.875273 -8.378623 -25.216236
v 9.875273 -8.378623 -25.216236
v -9.875273 -7.378623 -25.216236
v 9.875273 -7.378623 -25.216236
v -9.875273 -7.378623 -26.216236
v 9.875273 -7.378623 -26.216236
v -9.875273 -8.378623 -26.216236
v 9.875273 -8.378623 -26.216236
vt 0.375000 0.000000
vt 0.625000 0.000000
vt 0.375000 0.250000
vt 0.625000 0.250000
vt 0.375000 0.500000
vt 0.625000 0.500000
vt 0.375000 0.750000
vt 0.625000 0.750000
vt 0.375000 1.000000
vt 0.625000 1.000000
vt 0.875000 0.000000
vt 0.875000 0.250000
vt 0.125000 0.000000
vt 0.125000 0.250000
vn 0.000000 0.000000 1.000000
vn 0.000000 0.000000 1.000000
vn 0.000000 0.000000 1.000000
vn 0.000000 0.000000 1.000000
vn 0.000000 1.000000 0.000000
vn 0.000000 1.000000 0.000000
vn 0.000000 1.000000 0.000000
vn 0.000000 1.000000 0.000000
vn 0.000000 0.000000 -1.000000
vn 0.000000 0.000000 -1.000000
vn 0.000000 0.000000 -1.000000
vn 0.000000 0.000000 -1.000000
vn 0.000000 -1.000000 0.000000
vn 0.000000 -1.000000 0.000000
vn 0.000000 -1.000000 0.000000
vn 0.000000 -1.000000 0.000000
vn 1.000000 0.000000 0.000000
vn 1.000000 0.000000 0.000000
vn 1.000000 0.000000 0.000000
vn 1.000000 0.000000 0.000000
vn -1.000000 0.000000 0.000000
vn -1.000000 0.000000 0.000000
vn -1.000000 0.000000 0.000000
vn -1.000000 0.000000 0.000000
s off
g group3 pCube7
usemtl initialShadingGroup
f 331/561/1035 332/562/1036 334/564/1037 333/563/1038
f 333/563/1039 334/564/1040 336/566/1041 335/565/1042
f 335/565/1043 336/566/1044 338/568/1045 337/567/1046
f 337/567/1047 338/568/1048 332/570/1049 331/569/1050
f 332/562/1051 338/571/1052 336/572/1053 334/564/1054
f 337/573/1055 331/561/1056 333/563/1057 335/574/1058
